<svg version="1.1" viewBox="0.0 0.0 100.0 100.0" fill="none" stroke="none" stroke-linecap="square" stroke-miterlimit="10" xmlns:xlink="http://www.w3.org/1999/xlink" xmlns="http://www.w3.org/2000/svg"><clipPath id="p.0"><path d="m0 0l100.0 0l0 100.0l-100.0 0l0 -100.0z" clip-rule="nonzero"/></clipPath><g clip-path="url(#p.0)"><path fill="#000000" fill-opacity="0.0" d="m0 0l100.0 0l0 100.0l-100.0 0z" fill-rule="evenodd"/><path fill="#000000" d="m11.364829 25.30979l0 0c0 -2.1425018 1.7368412 -3.879343 3.879343 -3.879343l16.556274 0l0 0c1.0288639 0 2.0155926 0.4087143 2.7431087 1.1362324c0.72752 0.7275181 1.1362343 1.7142448 1.1362343 2.7431107l0 15.516905c0 2.1425018 -1.7368431 3.8793411 -3.879343 3.8793411l-16.556274 0c-2.1425018 0 -3.879343 -1.7368393 -3.879343 -3.8793411z" fill-rule="evenodd"/><path stroke="#000000" stroke-width="1.0" stroke-linejoin="round" stroke-linecap="butt" d="m11.364829 25.30979l0 0c0 -2.1425018 1.7368412 -3.879343 3.879343 -3.879343l16.556274 0l0 0c1.0288639 0 2.0155926 0.4087143 2.7431087 1.1362324c0.72752 0.7275181 1.1362343 1.7142448 1.1362343 2.7431107l0 15.516905c0 2.1425018 -1.7368431 3.8793411 -3.879343 3.8793411l-16.556274 0c-2.1425018 0 -3.879343 -1.7368393 -3.879343 -3.8793411z" fill-rule="evenodd"/><path fill="#000000" fill-opacity="0.0" d="m8.391076 12.892388l74.519684 0l0 19.149609l-74.519684 0z" fill-rule="evenodd"/><path fill="#ffffff" d="m18.750452 39.812386l0 -13.359373l5.015625 0q1.53125 0 2.453125 0.40625q0.921875 0.40625 1.4375 1.25q0.53125 0.84375 0.53125 1.765625q0 0.859375 -0.46875 1.625q-0.453125 0.7499981 -1.390625 1.2031231q1.203125 0.359375 1.859375 1.21875q0.65625 0.859375 0.65625 2.015625q0 0.9375 -0.40625 1.75q-0.390625 0.796875 -0.984375 1.234375q-0.578125 0.4375 -1.453125 0.671875q-0.875 0.21875 -2.15625 0.21875l-5.09375 0zm1.78125 -7.75l2.875 0q1.1875 0 1.6875 -0.1406231q0.671875 -0.203125 1.015625 -0.671875q0.34375 -0.46875 0.34375 -1.171875q0 -0.65625 -0.328125 -1.15625q-0.3125 -0.515625 -0.90625 -0.703125q-0.59375 -0.1875 -2.03125 -0.1875l-2.65625 0l0 4.031248zm0 6.171875l3.3125 0q0.859375 0 1.203125 -0.0625q0.609375 -0.109375 1.015625 -0.359375q0.421875 -0.265625 0.6875 -0.75q0.265625 -0.484375 0.265625 -1.125q0 -0.75 -0.390625 -1.296875q-0.375 -0.546875 -1.0625 -0.765625q-0.671875 -0.234375 -1.953125 -0.234375l-3.078125 0l0 4.59375z" fill-rule="nonzero"/><path fill="#000000" d="m37.45669 43.897717l0 0c0 -2.1425018 1.7368431 -3.879345 3.879345 -3.879345l16.556274 0l0 0c1.0288658 0 2.0155907 0.4087181 2.7431107 1.1362343c0.7275162 0.7275162 1.1362305 1.7142448 1.1362305 2.7431107l0 15.516903c0 2.1425018 -1.7368393 3.879345 -3.8793411 3.879345l-16.556274 0c-2.1425018 0 -3.879345 -1.7368431 -3.879345 -3.879345z" fill-rule="evenodd"/><path stroke="#000000" stroke-width="1.0" stroke-linejoin="round" stroke-linecap="butt" d="m37.45669 43.897717l0 0c0 -2.1425018 1.7368431 -3.879345 3.879345 -3.879345l16.556274 0l0 0c1.0288658 0 2.0155907 0.4087181 2.7431107 1.1362343c0.7275162 0.7275162 1.1362305 1.7142448 1.1362305 2.7431107l0 15.516903c0 2.1425018 -1.7368393 3.879345 -3.8793411 3.879345l-16.556274 0c-2.1425018 0 -3.879345 -1.7368431 -3.879345 -3.879345z" fill-rule="evenodd"/><path fill="#000000" fill-opacity="0.0" d="m34.48294 31.480314l74.519684 0l0 19.149607l-74.519684 0z" fill-rule="evenodd"/><path fill="#ffffff" d="m44.842316 58.400314l0 -13.359375l5.015625 0q1.53125 0 2.453125 0.40625q0.921875 0.40625 1.4375 1.25q0.53125 0.84375 0.53125 1.765625q0 0.859375 -0.46875 1.625q-0.453125 0.75 -1.390625 1.203125q1.203125 0.359375 1.859375 1.21875q0.65625 0.859375 0.65625 2.015625q0 0.9375 -0.40625 1.75q-0.390625 0.796875 -0.984375 1.234375q-0.578125 0.4375 -1.453125 0.671875q-0.875 0.21875 -2.15625 0.21875l-5.09375 0zm1.78125 -7.75l2.875 0q1.1875 0 1.6875 -0.140625q0.671875 -0.203125 1.015625 -0.671875q0.34375 -0.46875 0.34375 -1.171875q0 -0.65625 -0.328125 -1.15625q-0.3125 -0.515625 -0.90625 -0.703125q-0.59375 -0.1875 -2.03125 -0.1875l-2.65625 0l0 4.03125zm0 6.171875l3.3125 0q0.859375 0 1.203125 -0.0625q0.609375 -0.109375 1.015625 -0.359375q0.421875 -0.265625 0.6875 -0.75q0.265625 -0.484375 0.265625 -1.125q0 -0.75 -0.390625 -1.296875q-0.375 -0.546875 -1.0625 -0.765625q-0.671875 -0.234375 -1.953125 -0.234375l-3.078125 0l0 4.59375z" fill-rule="nonzero"/><path fill="#000000" d="m63.934383 59.897717l0 0c0 -2.1425018 1.7368431 -3.879345 3.879345 -3.879345l16.556274 0l0 0c1.028862 0 2.0155869 0.4087181 2.7431107 1.1362343c0.7275162 0.7275162 1.1362305 1.7142448 1.1362305 2.7431107l0 15.516903c0 2.1425018 -1.7368393 3.8793411 -3.8793411 3.8793411l-16.556274 0c-2.1425018 0 -3.879345 -1.7368393 -3.879345 -3.8793411z" fill-rule="evenodd"/><path stroke="#000000" stroke-width="1.0" stroke-linejoin="round" stroke-linecap="butt" d="m63.934383 59.897717l0 0c0 -2.1425018 1.7368431 -3.879345 3.879345 -3.879345l16.556274 0l0 0c1.028862 0 2.0155869 0.4087181 2.7431107 1.1362343c0.7275162 0.7275162 1.1362305 1.7142448 1.1362305 2.7431107l0 15.516903c0 2.1425018 -1.7368393 3.8793411 -3.8793411 3.8793411l-16.556274 0c-2.1425018 0 -3.879345 -1.7368393 -3.879345 -3.8793411z" fill-rule="evenodd"/><path fill="#000000" fill-opacity="0.0" d="m60.96063 47.480316l74.519684 0l0 19.149605l-74.519684 0z" fill-rule="evenodd"/><path fill="#ffffff" d="m80.92938 69.712814l1.765625 0.453125q-0.5625 2.171875 -2.0 3.328125q-1.4375 1.140625 -3.53125 1.140625q-2.15625 0 -3.515625 -0.875q-1.34375 -0.890625 -2.0625 -2.546875q-0.703125 -1.671875 -0.703125 -3.59375q0 -2.078125 0.796875 -3.625q0.796875 -1.5625 2.265625 -2.359375q1.484375 -0.8125 3.25 -0.8125q2.0 0 3.359375 1.015625q1.375 1.015625 1.90625 2.875l-1.734375 0.40625q-0.46875 -1.453125 -1.359375 -2.109375q-0.875 -0.671875 -2.203125 -0.671875q-1.546875 0 -2.578125 0.734375q-1.03125 0.734375 -1.453125 1.984375q-0.421875 1.234375 -0.421875 2.5625q0 1.703125 0.5 2.96875q0.5 1.265625 1.546875 1.90625q1.046875 0.625 2.265625 0.625q1.484375 0 2.515625 -0.859375q1.03125 -0.859375 1.390625 -2.546875z" fill-rule="nonzero"/></g></svg>