<svg version="1.1" viewBox="0.0 0.0 225.98425196850394 255.76640419947506" fill="none" stroke="none" stroke-linecap="square" stroke-miterlimit="10" xmlns:xlink="http://www.w3.org/1999/xlink" xmlns="http://www.w3.org/2000/svg"><clipPath id="p.0"><path d="m0 0l225.98425 0l0 255.7664l-225.98425 0l0 -255.7664z" clip-rule="nonzero"/></clipPath><g clip-path="url(#p.0)"><path fill="#000000" fill-opacity="0.0" d="m0 0l225.98425 0l0 255.7664l-225.98425 0z" fill-rule="evenodd"/><path fill="#cccccc" d="m36.716534 68.76378l113.889755 0l0 29.354332l-113.889755 0z" fill-rule="evenodd"/><path fill="#000000" fill-opacity="0.0" d="m46.50656 160.1916l496.06302 0l0 57.889755l-496.06302 0z" fill-rule="evenodd"/><path fill="#000000" d="m33.280838 72.67481l119.49606 0l0 5.8582687l-119.49606 0z" fill-rule="evenodd"/><path stroke="#000000" stroke-width="1.0" stroke-linejoin="round" stroke-linecap="butt" d="m33.280838 72.67481l119.49606 0l0 5.8582687l-119.49606 0z" fill-rule="evenodd"/><path fill="#000000" d="m32.98163 83.968506l120.09448 0l0 5.8582687l-120.09448 0z" fill-rule="evenodd"/><path stroke="#000000" stroke-width="1.0" stroke-linejoin="round" stroke-linecap="butt" d="m32.98163 83.968506l120.09448 0l0 5.8582687l-120.09448 0z" fill-rule="evenodd"/><path fill="#bf9000" d="m34.225723 68.937004l0 -29.71653l0 0c0 -16.411991 26.468079 -29.716537 59.11811 -29.716537c32.650032 0 59.11811 13.304546 59.11811 29.716537l0 29.71653z" fill-rule="evenodd"/><path fill="#bf9000" d="m36.09449 98.12861l116.37795 0l0 118.74015l-116.37795 0z" fill-rule="evenodd"/><path fill="#bf9000" d="m150.59842 216.85826l0 -118.74015l46.67717 118.74015z" fill-rule="evenodd"/><path fill="#000000" d="m150.59842 44.354332l28.944885 0l0 8.724407l-28.944885 0z" fill-rule="evenodd"/><path stroke="#000000" stroke-width="1.0" stroke-linejoin="round" stroke-linecap="butt" d="m150.59842 44.354332l28.944885 0l0 8.724407l-28.944885 0z" fill-rule="evenodd"/><path fill="#000000" d="m192.60367 36.82677l-7.9369965 0l0 0c-4.383499 0 -7.9370117 5.3232307 -7.9370117 11.889763c0 6.566536 3.5535126 11.889767 7.9370117 11.889767l7.9369965 0z" fill-rule="evenodd"/><path stroke="#000000" stroke-width="1.0" stroke-linejoin="round" stroke-linecap="butt" d="m192.60367 36.82677l-7.9369965 0l0 0c-4.383499 0 -7.9370117 5.3232307 -7.9370117 11.889763c0 6.566536 3.5535126 11.889767 7.9370117 11.889767l7.9369965 0z" fill-rule="evenodd"/><path fill="#000000" d="m158.06561 113.88189l44.18898 0l0 11.811028l-44.18898 0z" fill-rule="evenodd"/><path stroke="#000000" stroke-width="1.0" stroke-linejoin="round" stroke-linecap="butt" d="m158.06561 113.88189l44.18898 0l0 11.811028l-44.18898 0z" fill-rule="evenodd"/><path fill="#000000" d="m33.514435 216.87138l176.7559 0l0 16.18898l-176.7559 0z" fill-rule="evenodd"/><path stroke="#000000" stroke-width="1.0" stroke-linejoin="round" stroke-linecap="butt" d="m33.514435 216.87138l176.7559 0l0 16.18898l-176.7559 0z" fill-rule="evenodd"/></g></svg>